<mxfile host="app.diagrams.net" modified="2023-11-09T03:34:01.775Z" agent="Mozilla/5.0 (Windows NT 10.0; Win64; x64) AppleWebKit/537.36 (KHTML, like Gecko) Chrome/119.0.0.0 Safari/537.36" etag="ip_6ByUxAQoOniZlzoYB" version="22.1.0" type="device">
  <diagram name="第 1 页" id="BFrUl_21zB2Qt-PV63rq">
    <mxGraphModel dx="913" dy="503" grid="1" gridSize="10" guides="1" tooltips="1" connect="1" arrows="1" fold="1" page="1" pageScale="1" pageWidth="827" pageHeight="1169" math="0" shadow="0">
      <root>
        <mxCell id="0" />
        <mxCell id="1" parent="0" />
        <mxCell id="BYbjB0AaW16P3pTyjjmu-1" value="account" style="whiteSpace=wrap;html=1;align=center;" parent="1" vertex="1">
          <mxGeometry x="810" y="290" width="100" height="40" as="geometry" />
        </mxCell>
        <mxCell id="BYbjB0AaW16P3pTyjjmu-126" style="edgeStyle=none;shape=connector;rounded=0;orthogonalLoop=1;jettySize=auto;html=1;entryX=0;entryY=0.5;entryDx=0;entryDy=0;labelBackgroundColor=default;strokeColor=default;align=center;verticalAlign=middle;fontFamily=Helvetica;fontSize=11;fontColor=default;endArrow=none;" parent="1" source="BYbjB0AaW16P3pTyjjmu-2" target="BYbjB0AaW16P3pTyjjmu-123" edge="1">
          <mxGeometry relative="1" as="geometry" />
        </mxCell>
        <mxCell id="BYbjB0AaW16P3pTyjjmu-2" value="shop" style="whiteSpace=wrap;html=1;align=center;" parent="1" vertex="1">
          <mxGeometry x="374" y="485" width="100" height="40" as="geometry" />
        </mxCell>
        <mxCell id="BYbjB0AaW16P3pTyjjmu-3" value="product" style="whiteSpace=wrap;html=1;align=center;" parent="1" vertex="1">
          <mxGeometry x="374" y="795" width="100" height="40" as="geometry" />
        </mxCell>
        <mxCell id="BYbjB0AaW16P3pTyjjmu-4" value="order" style="whiteSpace=wrap;html=1;align=center;" parent="1" vertex="1">
          <mxGeometry x="1070" y="485" width="100" height="40" as="geometry" />
        </mxCell>
        <mxCell id="BYbjB0AaW16P3pTyjjmu-5" value="name" style="ellipse;whiteSpace=wrap;html=1;align=center;" parent="1" vertex="1">
          <mxGeometry x="600" y="210" width="100" height="40" as="geometry" />
        </mxCell>
        <mxCell id="BYbjB0AaW16P3pTyjjmu-6" value="account_uuid" style="ellipse;whiteSpace=wrap;html=1;align=center;fontStyle=4;" parent="1" vertex="1">
          <mxGeometry x="590" y="260" width="100" height="40" as="geometry" />
        </mxCell>
        <mxCell id="BYbjB0AaW16P3pTyjjmu-7" value="pwd" style="ellipse;whiteSpace=wrap;html=1;align=center;" parent="1" vertex="1">
          <mxGeometry x="624" y="150" width="100" height="40" as="geometry" />
        </mxCell>
        <mxCell id="BYbjB0AaW16P3pTyjjmu-8" value="imageurl" style="ellipse;whiteSpace=wrap;html=1;align=center;" parent="1" vertex="1">
          <mxGeometry x="660" y="90" width="100" height="40" as="geometry" />
        </mxCell>
        <mxCell id="BYbjB0AaW16P3pTyjjmu-9" value="email" style="ellipse;whiteSpace=wrap;html=1;align=center;" parent="1" vertex="1">
          <mxGeometry x="750" y="50" width="100" height="40" as="geometry" />
        </mxCell>
        <mxCell id="BYbjB0AaW16P3pTyjjmu-10" value="phone" style="ellipse;whiteSpace=wrap;html=1;align=center;" parent="1" vertex="1">
          <mxGeometry x="867" y="38" width="100" height="40" as="geometry" />
        </mxCell>
        <mxCell id="BYbjB0AaW16P3pTyjjmu-11" value="address" style="ellipse;whiteSpace=wrap;html=1;align=center;" parent="1" vertex="1">
          <mxGeometry x="1040" y="118" width="100" height="40" as="geometry" />
        </mxCell>
        <mxCell id="BYbjB0AaW16P3pTyjjmu-12" value="credit_card" style="ellipse;whiteSpace=wrap;html=1;align=center;" parent="1" vertex="1">
          <mxGeometry x="970" y="70" width="100" height="40" as="geometry" />
        </mxCell>
        <mxCell id="BYbjB0AaW16P3pTyjjmu-13" value="birthday" style="ellipse;whiteSpace=wrap;html=1;align=center;" parent="1" vertex="1">
          <mxGeometry x="1050" y="190" width="100" height="40" as="geometry" />
        </mxCell>
        <mxCell id="BYbjB0AaW16P3pTyjjmu-14" value="update_time" style="ellipse;whiteSpace=wrap;html=1;align=center;" parent="1" vertex="1">
          <mxGeometry x="1070" y="320" width="100" height="40" as="geometry" />
        </mxCell>
        <mxCell id="BYbjB0AaW16P3pTyjjmu-15" value="create" style="shape=rhombus;perimeter=rhombusPerimeter;whiteSpace=wrap;html=1;align=center;fillColor=#dae8fc;strokeColor=#6c8ebf;" parent="1" vertex="1">
          <mxGeometry x="364" y="280" width="120" height="60" as="geometry" />
        </mxCell>
        <mxCell id="BYbjB0AaW16P3pTyjjmu-16" value="shop_uuid" style="ellipse;whiteSpace=wrap;html=1;align=center;fontStyle=4;" parent="1" vertex="1">
          <mxGeometry x="224" y="370" width="100" height="40" as="geometry" />
        </mxCell>
        <mxCell id="BYbjB0AaW16P3pTyjjmu-17" value="product_uuid" style="ellipse;whiteSpace=wrap;html=1;align=center;fontStyle=4;" parent="1" vertex="1">
          <mxGeometry x="260" y="745" width="100" height="40" as="geometry" />
        </mxCell>
        <mxCell id="BYbjB0AaW16P3pTyjjmu-18" value="order_uuid" style="ellipse;whiteSpace=wrap;html=1;align=center;fontStyle=4;" parent="1" vertex="1">
          <mxGeometry x="1220" y="365" width="100" height="40" as="geometry" />
        </mxCell>
        <mxCell id="BYbjB0AaW16P3pTyjjmu-19" value="name" style="ellipse;whiteSpace=wrap;html=1;align=center;" parent="1" vertex="1">
          <mxGeometry x="224" y="426" width="100" height="40" as="geometry" />
        </mxCell>
        <mxCell id="BYbjB0AaW16P3pTyjjmu-20" value="description" style="ellipse;whiteSpace=wrap;html=1;align=center;" parent="1" vertex="1">
          <mxGeometry x="224" y="483" width="100" height="40" as="geometry" />
        </mxCell>
        <mxCell id="BYbjB0AaW16P3pTyjjmu-21" value="imageurl" style="ellipse;whiteSpace=wrap;html=1;align=center;" parent="1" vertex="1">
          <mxGeometry x="224" y="539" width="100" height="40" as="geometry" />
        </mxCell>
        <mxCell id="BYbjB0AaW16P3pTyjjmu-22" value="update_time" style="ellipse;whiteSpace=wrap;html=1;align=center;" parent="1" vertex="1">
          <mxGeometry x="224" y="595" width="100" height="40" as="geometry" />
        </mxCell>
        <mxCell id="BYbjB0AaW16P3pTyjjmu-23" value="stock" style="ellipse;whiteSpace=wrap;html=1;align=center;" parent="1" vertex="1">
          <mxGeometry x="190" y="850" width="100" height="40" as="geometry" />
        </mxCell>
        <mxCell id="BYbjB0AaW16P3pTyjjmu-24" value="description" style="ellipse;whiteSpace=wrap;html=1;align=center;" parent="1" vertex="1">
          <mxGeometry x="374" y="980" width="100" height="40" as="geometry" />
        </mxCell>
        <mxCell id="BYbjB0AaW16P3pTyjjmu-25" value="price" style="ellipse;whiteSpace=wrap;html=1;align=center;" parent="1" vertex="1">
          <mxGeometry x="264" y="955" width="100" height="40" as="geometry" />
        </mxCell>
        <mxCell id="BYbjB0AaW16P3pTyjjmu-26" value="tags" style="ellipse;whiteSpace=wrap;html=1;align=center;" parent="1" vertex="1">
          <mxGeometry x="470" y="945" width="100" height="40" as="geometry" />
        </mxCell>
        <mxCell id="BYbjB0AaW16P3pTyjjmu-27" value="name" style="ellipse;whiteSpace=wrap;html=1;align=center;" parent="1" vertex="1">
          <mxGeometry x="210" y="795" width="100" height="40" as="geometry" />
        </mxCell>
        <mxCell id="BYbjB0AaW16P3pTyjjmu-28" value="update_time" style="ellipse;whiteSpace=wrap;html=1;align=center;" parent="1" vertex="1">
          <mxGeometry x="524" y="900" width="100" height="40" as="geometry" />
        </mxCell>
        <mxCell id="BYbjB0AaW16P3pTyjjmu-29" value="text" style="ellipse;whiteSpace=wrap;html=1;align=center;strokeColor=#000000;" parent="1" vertex="1">
          <mxGeometry x="690" y="860" width="100" height="40" as="geometry" />
        </mxCell>
        <mxCell id="BYbjB0AaW16P3pTyjjmu-30" value="dislikes" style="ellipse;whiteSpace=wrap;html=1;align=center;strokeColor=#000000;" parent="1" vertex="1">
          <mxGeometry x="930" y="865" width="100" height="40" as="geometry" />
        </mxCell>
        <mxCell id="BYbjB0AaW16P3pTyjjmu-31" value="likes" style="ellipse;whiteSpace=wrap;html=1;align=center;strokeColor=#000000;" parent="1" vertex="1">
          <mxGeometry x="810" y="880" width="100" height="40" as="geometry" />
        </mxCell>
        <mxCell id="BYbjB0AaW16P3pTyjjmu-32" value="update_time" style="ellipse;whiteSpace=wrap;html=1;align=center;strokeColor=#000000;" parent="1" vertex="1">
          <mxGeometry x="960" y="795" width="100" height="40" as="geometry" />
        </mxCell>
        <mxCell id="BYbjB0AaW16P3pTyjjmu-33" value="order_date" style="ellipse;whiteSpace=wrap;html=1;align=center;" parent="1" vertex="1">
          <mxGeometry x="1220" y="423" width="100" height="40" as="geometry" />
        </mxCell>
        <mxCell id="BYbjB0AaW16P3pTyjjmu-34" value="receive_date" style="ellipse;whiteSpace=wrap;html=1;align=center;" parent="1" vertex="1">
          <mxGeometry x="1220" y="480" width="100" height="40" as="geometry" />
        </mxCell>
        <mxCell id="BYbjB0AaW16P3pTyjjmu-35" value="status" style="ellipse;whiteSpace=wrap;html=1;align=center;" parent="1" vertex="1">
          <mxGeometry x="1220" y="538" width="100" height="40" as="geometry" />
        </mxCell>
        <mxCell id="BYbjB0AaW16P3pTyjjmu-36" value="discount" style="ellipse;whiteSpace=wrap;html=1;align=center;" parent="1" vertex="1">
          <mxGeometry x="1220" y="595" width="100" height="40" as="geometry" />
        </mxCell>
        <mxCell id="BYbjB0AaW16P3pTyjjmu-37" value="request" style="shape=rhombus;perimeter=rhombusPerimeter;whiteSpace=wrap;html=1;align=center;fillColor=#dae8fc;strokeColor=#6c8ebf;" parent="1" vertex="1">
          <mxGeometry x="930" y="360" width="120" height="60" as="geometry" />
        </mxCell>
        <mxCell id="BYbjB0AaW16P3pTyjjmu-38" value="is subscribed to" style="shape=rhombus;perimeter=rhombusPerimeter;whiteSpace=wrap;html=1;align=center;fillColor=#dae8fc;strokeColor=#6c8ebf;" parent="1" vertex="1">
          <mxGeometry x="524" y="380" width="120" height="60" as="geometry" />
        </mxCell>
        <mxCell id="BYbjB0AaW16P3pTyjjmu-39" value="has" style="shape=rhombus;perimeter=rhombusPerimeter;whiteSpace=wrap;html=1;align=center;fillColor=#dae8fc;strokeColor=#6c8ebf;" parent="1" vertex="1">
          <mxGeometry x="604" y="475" width="120" height="60" as="geometry" />
        </mxCell>
        <mxCell id="BYbjB0AaW16P3pTyjjmu-40" value="sells" style="shape=rhombus;perimeter=rhombusPerimeter;whiteSpace=wrap;html=1;align=center;fillColor=#dae8fc;strokeColor=#6c8ebf;" parent="1" vertex="1">
          <mxGeometry x="364" y="650" width="120" height="60" as="geometry" />
        </mxCell>
        <mxCell id="BYbjB0AaW16P3pTyjjmu-41" value="consists of" style="shape=rhombus;perimeter=rhombusPerimeter;whiteSpace=wrap;html=1;align=center;fillColor=#dae8fc;strokeColor=#6c8ebf;" parent="1" vertex="1">
          <mxGeometry x="910" y="650" width="120" height="60" as="geometry" />
        </mxCell>
        <mxCell id="BYbjB0AaW16P3pTyjjmu-42" value="" style="endArrow=none;html=1;rounded=0;" parent="1" source="BYbjB0AaW16P3pTyjjmu-6" target="BYbjB0AaW16P3pTyjjmu-1" edge="1">
          <mxGeometry relative="1" as="geometry">
            <mxPoint x="710" y="380" as="sourcePoint" />
            <mxPoint x="870" y="380" as="targetPoint" />
          </mxGeometry>
        </mxCell>
        <mxCell id="BYbjB0AaW16P3pTyjjmu-43" value="" style="endArrow=none;html=1;rounded=0;" parent="1" source="BYbjB0AaW16P3pTyjjmu-5" target="BYbjB0AaW16P3pTyjjmu-1" edge="1">
          <mxGeometry relative="1" as="geometry">
            <mxPoint x="680" y="253" as="sourcePoint" />
            <mxPoint x="799" y="267" as="targetPoint" />
          </mxGeometry>
        </mxCell>
        <mxCell id="BYbjB0AaW16P3pTyjjmu-44" value="" style="endArrow=none;html=1;rounded=0;" parent="1" source="BYbjB0AaW16P3pTyjjmu-7" target="BYbjB0AaW16P3pTyjjmu-1" edge="1">
          <mxGeometry relative="1" as="geometry">
            <mxPoint x="720" y="226" as="sourcePoint" />
            <mxPoint x="830" y="300" as="targetPoint" />
          </mxGeometry>
        </mxCell>
        <mxCell id="BYbjB0AaW16P3pTyjjmu-45" value="" style="endArrow=none;html=1;rounded=0;" parent="1" source="BYbjB0AaW16P3pTyjjmu-9" target="BYbjB0AaW16P3pTyjjmu-1" edge="1">
          <mxGeometry relative="1" as="geometry">
            <mxPoint x="861" y="203" as="sourcePoint" />
            <mxPoint x="850" y="280" as="targetPoint" />
          </mxGeometry>
        </mxCell>
        <mxCell id="BYbjB0AaW16P3pTyjjmu-46" value="" style="endArrow=none;html=1;rounded=0;" parent="1" source="BYbjB0AaW16P3pTyjjmu-8" target="BYbjB0AaW16P3pTyjjmu-1" edge="1">
          <mxGeometry relative="1" as="geometry">
            <mxPoint x="861" y="186" as="sourcePoint" />
            <mxPoint x="980" y="200" as="targetPoint" />
          </mxGeometry>
        </mxCell>
        <mxCell id="BYbjB0AaW16P3pTyjjmu-47" value="" style="endArrow=none;html=1;rounded=0;" parent="1" source="BYbjB0AaW16P3pTyjjmu-11" target="BYbjB0AaW16P3pTyjjmu-1" edge="1">
          <mxGeometry relative="1" as="geometry">
            <mxPoint x="886" y="253" as="sourcePoint" />
            <mxPoint x="1005" y="267" as="targetPoint" />
          </mxGeometry>
        </mxCell>
        <mxCell id="BYbjB0AaW16P3pTyjjmu-48" value="" style="endArrow=none;html=1;rounded=0;" parent="1" source="BYbjB0AaW16P3pTyjjmu-1" target="BYbjB0AaW16P3pTyjjmu-12" edge="1">
          <mxGeometry relative="1" as="geometry">
            <mxPoint x="886" y="266" as="sourcePoint" />
            <mxPoint x="1005" y="280" as="targetPoint" />
          </mxGeometry>
        </mxCell>
        <mxCell id="BYbjB0AaW16P3pTyjjmu-49" value="" style="endArrow=none;html=1;rounded=0;" parent="1" source="BYbjB0AaW16P3pTyjjmu-10" target="BYbjB0AaW16P3pTyjjmu-1" edge="1">
          <mxGeometry relative="1" as="geometry">
            <mxPoint x="886" y="226" as="sourcePoint" />
            <mxPoint x="1005" y="240" as="targetPoint" />
          </mxGeometry>
        </mxCell>
        <mxCell id="BYbjB0AaW16P3pTyjjmu-50" value="" style="endArrow=none;html=1;rounded=0;" parent="1" source="BYbjB0AaW16P3pTyjjmu-1" target="BYbjB0AaW16P3pTyjjmu-13" edge="1">
          <mxGeometry relative="1" as="geometry">
            <mxPoint x="880" y="280" as="sourcePoint" />
            <mxPoint x="999" y="294" as="targetPoint" />
          </mxGeometry>
        </mxCell>
        <mxCell id="BYbjB0AaW16P3pTyjjmu-51" value="" style="endArrow=none;html=1;rounded=0;" parent="1" source="BYbjB0AaW16P3pTyjjmu-1" target="BYbjB0AaW16P3pTyjjmu-14" edge="1">
          <mxGeometry relative="1" as="geometry">
            <mxPoint x="921" y="316" as="sourcePoint" />
            <mxPoint x="1040" y="330" as="targetPoint" />
          </mxGeometry>
        </mxCell>
        <mxCell id="BYbjB0AaW16P3pTyjjmu-52" value="" style="endArrow=none;html=1;rounded=0;" parent="1" source="BYbjB0AaW16P3pTyjjmu-16" target="BYbjB0AaW16P3pTyjjmu-2" edge="1">
          <mxGeometry relative="1" as="geometry">
            <mxPoint x="315" y="480" as="sourcePoint" />
            <mxPoint x="434" y="494" as="targetPoint" />
          </mxGeometry>
        </mxCell>
        <mxCell id="BYbjB0AaW16P3pTyjjmu-53" value="" style="endArrow=none;html=1;rounded=0;" parent="1" source="BYbjB0AaW16P3pTyjjmu-21" target="BYbjB0AaW16P3pTyjjmu-2" edge="1">
          <mxGeometry relative="1" as="geometry">
            <mxPoint x="224" y="556" as="sourcePoint" />
            <mxPoint x="343" y="570" as="targetPoint" />
          </mxGeometry>
        </mxCell>
        <mxCell id="BYbjB0AaW16P3pTyjjmu-54" value="" style="endArrow=none;html=1;rounded=0;" parent="1" source="BYbjB0AaW16P3pTyjjmu-19" target="BYbjB0AaW16P3pTyjjmu-2" edge="1">
          <mxGeometry relative="1" as="geometry">
            <mxPoint x="224.5" y="510" as="sourcePoint" />
            <mxPoint x="343.5" y="524" as="targetPoint" />
          </mxGeometry>
        </mxCell>
        <mxCell id="BYbjB0AaW16P3pTyjjmu-55" value="" style="endArrow=none;html=1;rounded=0;" parent="1" source="BYbjB0AaW16P3pTyjjmu-20" target="BYbjB0AaW16P3pTyjjmu-2" edge="1">
          <mxGeometry relative="1" as="geometry">
            <mxPoint x="214" y="536" as="sourcePoint" />
            <mxPoint x="333" y="550" as="targetPoint" />
          </mxGeometry>
        </mxCell>
        <mxCell id="BYbjB0AaW16P3pTyjjmu-56" value="" style="endArrow=none;html=1;rounded=0;" parent="1" source="BYbjB0AaW16P3pTyjjmu-17" target="BYbjB0AaW16P3pTyjjmu-3" edge="1">
          <mxGeometry relative="1" as="geometry">
            <mxPoint x="284" y="805" as="sourcePoint" />
            <mxPoint x="444" y="805" as="targetPoint" />
          </mxGeometry>
        </mxCell>
        <mxCell id="BYbjB0AaW16P3pTyjjmu-57" value="" style="endArrow=none;html=1;rounded=0;" parent="1" source="BYbjB0AaW16P3pTyjjmu-27" target="BYbjB0AaW16P3pTyjjmu-3" edge="1">
          <mxGeometry relative="1" as="geometry">
            <mxPoint x="332" y="839" as="sourcePoint" />
            <mxPoint x="384" y="832" as="targetPoint" />
          </mxGeometry>
        </mxCell>
        <mxCell id="BYbjB0AaW16P3pTyjjmu-58" value="" style="endArrow=none;html=1;rounded=0;" parent="1" source="BYbjB0AaW16P3pTyjjmu-23" target="BYbjB0AaW16P3pTyjjmu-3" edge="1">
          <mxGeometry relative="1" as="geometry">
            <mxPoint x="342" y="849" as="sourcePoint" />
            <mxPoint x="394" y="842" as="targetPoint" />
          </mxGeometry>
        </mxCell>
        <mxCell id="BYbjB0AaW16P3pTyjjmu-59" value="" style="endArrow=none;html=1;rounded=0;" parent="1" source="BYbjB0AaW16P3pTyjjmu-25" target="BYbjB0AaW16P3pTyjjmu-3" edge="1">
          <mxGeometry relative="1" as="geometry">
            <mxPoint x="352" y="859" as="sourcePoint" />
            <mxPoint x="404" y="852" as="targetPoint" />
          </mxGeometry>
        </mxCell>
        <mxCell id="BYbjB0AaW16P3pTyjjmu-60" value="" style="endArrow=none;html=1;rounded=0;" parent="1" source="BYbjB0AaW16P3pTyjjmu-24" target="BYbjB0AaW16P3pTyjjmu-3" edge="1">
          <mxGeometry relative="1" as="geometry">
            <mxPoint x="362" y="869" as="sourcePoint" />
            <mxPoint x="414" y="862" as="targetPoint" />
          </mxGeometry>
        </mxCell>
        <mxCell id="BYbjB0AaW16P3pTyjjmu-61" value="" style="endArrow=none;html=1;rounded=0;" parent="1" source="BYbjB0AaW16P3pTyjjmu-26" target="BYbjB0AaW16P3pTyjjmu-3" edge="1">
          <mxGeometry relative="1" as="geometry">
            <mxPoint x="372" y="879" as="sourcePoint" />
            <mxPoint x="424" y="872" as="targetPoint" />
          </mxGeometry>
        </mxCell>
        <mxCell id="BYbjB0AaW16P3pTyjjmu-62" value="" style="endArrow=none;html=1;rounded=0;" parent="1" source="BYbjB0AaW16P3pTyjjmu-3" target="BYbjB0AaW16P3pTyjjmu-28" edge="1">
          <mxGeometry relative="1" as="geometry">
            <mxPoint x="382" y="889" as="sourcePoint" />
            <mxPoint x="434" y="882" as="targetPoint" />
          </mxGeometry>
        </mxCell>
        <mxCell id="BYbjB0AaW16P3pTyjjmu-63" value="" style="endArrow=none;html=1;rounded=0;" parent="1" source="BYbjB0AaW16P3pTyjjmu-22" target="BYbjB0AaW16P3pTyjjmu-2" edge="1">
          <mxGeometry relative="1" as="geometry">
            <mxPoint x="334" y="590" as="sourcePoint" />
            <mxPoint x="386" y="583" as="targetPoint" />
          </mxGeometry>
        </mxCell>
        <mxCell id="BYbjB0AaW16P3pTyjjmu-64" value="" style="endArrow=none;html=1;rounded=0;" parent="1" source="BYbjB0AaW16P3pTyjjmu-29" target="BYbjB0AaW16P3pTyjjmu-97" edge="1">
          <mxGeometry relative="1" as="geometry">
            <mxPoint x="950" y="852" as="sourcePoint" />
            <mxPoint x="1024.2857142857142" y="780" as="targetPoint" />
          </mxGeometry>
        </mxCell>
        <mxCell id="BYbjB0AaW16P3pTyjjmu-65" value="" style="endArrow=none;html=1;rounded=0;" parent="1" source="BYbjB0AaW16P3pTyjjmu-31" target="BYbjB0AaW16P3pTyjjmu-97" edge="1">
          <mxGeometry relative="1" as="geometry">
            <mxPoint x="960" y="862" as="sourcePoint" />
            <mxPoint x="1037.5" y="780" as="targetPoint" />
          </mxGeometry>
        </mxCell>
        <mxCell id="BYbjB0AaW16P3pTyjjmu-66" value="" style="endArrow=none;html=1;rounded=0;" parent="1" source="BYbjB0AaW16P3pTyjjmu-30" target="BYbjB0AaW16P3pTyjjmu-97" edge="1">
          <mxGeometry relative="1" as="geometry">
            <mxPoint x="970" y="872" as="sourcePoint" />
            <mxPoint x="1053.333333333333" y="780" as="targetPoint" />
          </mxGeometry>
        </mxCell>
        <mxCell id="BYbjB0AaW16P3pTyjjmu-67" value="" style="endArrow=none;html=1;rounded=0;" parent="1" source="BYbjB0AaW16P3pTyjjmu-32" target="BYbjB0AaW16P3pTyjjmu-97" edge="1">
          <mxGeometry relative="1" as="geometry">
            <mxPoint x="980" y="882" as="sourcePoint" />
            <mxPoint x="1080" y="778.75" as="targetPoint" />
          </mxGeometry>
        </mxCell>
        <mxCell id="BYbjB0AaW16P3pTyjjmu-68" value="" style="endArrow=none;html=1;rounded=0;" parent="1" source="BYbjB0AaW16P3pTyjjmu-4" target="BYbjB0AaW16P3pTyjjmu-36" edge="1">
          <mxGeometry relative="1" as="geometry">
            <mxPoint x="1180" y="560" as="sourcePoint" />
            <mxPoint x="1340" y="560" as="targetPoint" />
          </mxGeometry>
        </mxCell>
        <mxCell id="BYbjB0AaW16P3pTyjjmu-69" value="" style="endArrow=none;html=1;rounded=0;" parent="1" source="BYbjB0AaW16P3pTyjjmu-4" target="BYbjB0AaW16P3pTyjjmu-35" edge="1">
          <mxGeometry relative="1" as="geometry">
            <mxPoint x="1257" y="540" as="sourcePoint" />
            <mxPoint x="1326" y="592" as="targetPoint" />
          </mxGeometry>
        </mxCell>
        <mxCell id="BYbjB0AaW16P3pTyjjmu-70" value="" style="endArrow=none;html=1;rounded=0;" parent="1" source="BYbjB0AaW16P3pTyjjmu-4" target="BYbjB0AaW16P3pTyjjmu-34" edge="1">
          <mxGeometry relative="1" as="geometry">
            <mxPoint x="1267" y="550" as="sourcePoint" />
            <mxPoint x="1336" y="602" as="targetPoint" />
          </mxGeometry>
        </mxCell>
        <mxCell id="BYbjB0AaW16P3pTyjjmu-71" value="" style="endArrow=none;html=1;rounded=0;" parent="1" source="BYbjB0AaW16P3pTyjjmu-4" target="BYbjB0AaW16P3pTyjjmu-33" edge="1">
          <mxGeometry relative="1" as="geometry">
            <mxPoint x="1277" y="560" as="sourcePoint" />
            <mxPoint x="1346" y="612" as="targetPoint" />
          </mxGeometry>
        </mxCell>
        <mxCell id="BYbjB0AaW16P3pTyjjmu-72" value="" style="endArrow=none;html=1;rounded=0;" parent="1" source="BYbjB0AaW16P3pTyjjmu-4" target="BYbjB0AaW16P3pTyjjmu-18" edge="1">
          <mxGeometry relative="1" as="geometry">
            <mxPoint x="1287" y="570" as="sourcePoint" />
            <mxPoint x="1356" y="622" as="targetPoint" />
          </mxGeometry>
        </mxCell>
        <mxCell id="BYbjB0AaW16P3pTyjjmu-73" value="" style="endArrow=none;html=1;rounded=0;exitX=1;exitY=0.5;exitDx=0;exitDy=0;" parent="1" source="BYbjB0AaW16P3pTyjjmu-38" target="BYbjB0AaW16P3pTyjjmu-1" edge="1">
          <mxGeometry relative="1" as="geometry">
            <mxPoint x="630" y="540" as="sourcePoint" />
            <mxPoint x="790" y="540" as="targetPoint" />
          </mxGeometry>
        </mxCell>
        <mxCell id="BYbjB0AaW16P3pTyjjmu-74" value="" style="endArrow=none;html=1;rounded=0;entryX=0;entryY=0.5;entryDx=0;entryDy=0;" parent="1" source="BYbjB0AaW16P3pTyjjmu-2" target="BYbjB0AaW16P3pTyjjmu-38" edge="1">
          <mxGeometry relative="1" as="geometry">
            <mxPoint x="514" y="510" as="sourcePoint" />
            <mxPoint x="674" y="510" as="targetPoint" />
          </mxGeometry>
        </mxCell>
        <mxCell id="BYbjB0AaW16P3pTyjjmu-75" value="" style="endArrow=none;html=1;rounded=0;" parent="1" source="BYbjB0AaW16P3pTyjjmu-15" target="BYbjB0AaW16P3pTyjjmu-1" edge="1">
          <mxGeometry relative="1" as="geometry">
            <mxPoint x="630" y="540" as="sourcePoint" />
            <mxPoint x="790" y="540" as="targetPoint" />
          </mxGeometry>
        </mxCell>
        <mxCell id="BYbjB0AaW16P3pTyjjmu-76" value="" style="endArrow=none;html=1;rounded=0;" parent="1" source="BYbjB0AaW16P3pTyjjmu-98" target="BYbjB0AaW16P3pTyjjmu-1" edge="1">
          <mxGeometry relative="1" as="geometry">
            <mxPoint x="860" y="410" as="sourcePoint" />
            <mxPoint x="830" y="342" as="targetPoint" />
          </mxGeometry>
        </mxCell>
        <mxCell id="BYbjB0AaW16P3pTyjjmu-77" value="" style="endArrow=none;html=1;rounded=0;exitX=0;exitY=0.5;exitDx=0;exitDy=0;" parent="1" source="BYbjB0AaW16P3pTyjjmu-37" target="BYbjB0AaW16P3pTyjjmu-1" edge="1">
          <mxGeometry relative="1" as="geometry">
            <mxPoint x="631" y="400" as="sourcePoint" />
            <mxPoint x="840" y="352" as="targetPoint" />
          </mxGeometry>
        </mxCell>
        <mxCell id="BYbjB0AaW16P3pTyjjmu-78" value="" style="endArrow=none;html=1;rounded=0;entryX=1;entryY=0.5;entryDx=0;entryDy=0;" parent="1" source="BYbjB0AaW16P3pTyjjmu-4" target="BYbjB0AaW16P3pTyjjmu-37" edge="1">
          <mxGeometry relative="1" as="geometry">
            <mxPoint x="651" y="420" as="sourcePoint" />
            <mxPoint x="860" y="372" as="targetPoint" />
          </mxGeometry>
        </mxCell>
        <mxCell id="BYbjB0AaW16P3pTyjjmu-79" value="" style="endArrow=none;html=1;rounded=0;entryX=0;entryY=0.5;entryDx=0;entryDy=0;" parent="1" source="BYbjB0AaW16P3pTyjjmu-2" target="BYbjB0AaW16P3pTyjjmu-39" edge="1">
          <mxGeometry relative="1" as="geometry">
            <mxPoint x="661" y="430" as="sourcePoint" />
            <mxPoint x="870" y="382" as="targetPoint" />
          </mxGeometry>
        </mxCell>
        <mxCell id="BYbjB0AaW16P3pTyjjmu-80" value="" style="endArrow=none;html=1;rounded=0;" parent="1" source="BYbjB0AaW16P3pTyjjmu-2" target="BYbjB0AaW16P3pTyjjmu-40" edge="1">
          <mxGeometry relative="1" as="geometry">
            <mxPoint x="565" y="420" as="sourcePoint" />
            <mxPoint x="774" y="372" as="targetPoint" />
          </mxGeometry>
        </mxCell>
        <mxCell id="BYbjB0AaW16P3pTyjjmu-81" value="" style="endArrow=none;html=1;rounded=0;" parent="1" source="BYbjB0AaW16P3pTyjjmu-40" target="BYbjB0AaW16P3pTyjjmu-3" edge="1">
          <mxGeometry relative="1" as="geometry">
            <mxPoint x="660" y="770" as="sourcePoint" />
            <mxPoint x="820" y="770" as="targetPoint" />
          </mxGeometry>
        </mxCell>
        <mxCell id="BYbjB0AaW16P3pTyjjmu-82" value="" style="endArrow=none;html=1;rounded=0;exitX=1;exitY=0.5;exitDx=0;exitDy=0;" parent="1" source="BYbjB0AaW16P3pTyjjmu-41" target="BYbjB0AaW16P3pTyjjmu-4" edge="1">
          <mxGeometry relative="1" as="geometry">
            <mxPoint x="1060" y="650" as="sourcePoint" />
            <mxPoint x="1220" y="650" as="targetPoint" />
          </mxGeometry>
        </mxCell>
        <mxCell id="BYbjB0AaW16P3pTyjjmu-83" value="" style="endArrow=none;html=1;rounded=0;entryX=0;entryY=0.5;entryDx=0;entryDy=0;" parent="1" source="BYbjB0AaW16P3pTyjjmu-3" target="BYbjB0AaW16P3pTyjjmu-41" edge="1">
          <mxGeometry relative="1" as="geometry">
            <mxPoint x="630" y="720" as="sourcePoint" />
            <mxPoint x="790" y="720" as="targetPoint" />
          </mxGeometry>
        </mxCell>
        <mxCell id="BYbjB0AaW16P3pTyjjmu-84" value="&lt;b&gt;1&lt;/b&gt;" style="text;html=1;strokeColor=none;fillColor=none;align=center;verticalAlign=middle;whiteSpace=wrap;rounded=0;" parent="1" vertex="1">
          <mxGeometry x="464" y="310" width="60" height="30" as="geometry" />
        </mxCell>
        <mxCell id="BYbjB0AaW16P3pTyjjmu-85" value="&lt;b&gt;1&lt;/b&gt;" style="text;html=1;strokeColor=none;fillColor=none;align=center;verticalAlign=middle;whiteSpace=wrap;rounded=0;" parent="1" vertex="1">
          <mxGeometry x="370" y="345" width="60" height="30" as="geometry" />
        </mxCell>
        <mxCell id="BYbjB0AaW16P3pTyjjmu-86" value="&lt;b&gt;N&lt;/b&gt;" style="text;html=1;strokeColor=none;fillColor=none;align=center;verticalAlign=middle;whiteSpace=wrap;rounded=0;" parent="1" vertex="1">
          <mxGeometry x="464" y="400" width="60" height="30" as="geometry" />
        </mxCell>
        <mxCell id="BYbjB0AaW16P3pTyjjmu-87" value="&lt;b&gt;M&lt;/b&gt;" style="text;html=1;strokeColor=none;fillColor=none;align=center;verticalAlign=middle;whiteSpace=wrap;rounded=0;" parent="1" vertex="1">
          <mxGeometry x="614" y="370" width="60" height="30" as="geometry" />
        </mxCell>
        <mxCell id="BYbjB0AaW16P3pTyjjmu-88" value="" style="endArrow=none;html=1;rounded=0;" parent="1" source="BYbjB0AaW16P3pTyjjmu-39" target="BYbjB0AaW16P3pTyjjmu-4" edge="1">
          <mxGeometry relative="1" as="geometry">
            <mxPoint x="840" y="508.82" as="sourcePoint" />
            <mxPoint x="1000" y="508.82" as="targetPoint" />
          </mxGeometry>
        </mxCell>
        <mxCell id="BYbjB0AaW16P3pTyjjmu-89" value="&lt;b&gt;1&lt;/b&gt;" style="text;html=1;strokeColor=none;fillColor=none;align=center;verticalAlign=middle;whiteSpace=wrap;rounded=0;" parent="1" vertex="1">
          <mxGeometry x="900" y="345" width="60" height="30" as="geometry" />
        </mxCell>
        <mxCell id="BYbjB0AaW16P3pTyjjmu-90" value="&lt;b&gt;N&lt;/b&gt;" style="text;html=1;strokeColor=none;fillColor=none;align=center;verticalAlign=middle;whiteSpace=wrap;rounded=0;" parent="1" vertex="1">
          <mxGeometry x="1030" y="355" width="60" height="30" as="geometry" />
        </mxCell>
        <mxCell id="BYbjB0AaW16P3pTyjjmu-91" value="&lt;b&gt;N&lt;/b&gt;" style="text;html=1;strokeColor=none;fillColor=none;align=center;verticalAlign=middle;whiteSpace=wrap;rounded=0;" parent="1" vertex="1">
          <mxGeometry x="880" y="635" width="60" height="30" as="geometry" />
        </mxCell>
        <mxCell id="BYbjB0AaW16P3pTyjjmu-92" value="&lt;b&gt;1&lt;/b&gt;" style="text;html=1;strokeColor=none;fillColor=none;align=center;verticalAlign=middle;whiteSpace=wrap;rounded=0;" parent="1" vertex="1">
          <mxGeometry x="1000" y="635" width="60" height="30" as="geometry" />
        </mxCell>
        <mxCell id="BYbjB0AaW16P3pTyjjmu-93" value="&lt;b&gt;1&lt;/b&gt;" style="text;html=1;strokeColor=none;fillColor=none;align=center;verticalAlign=middle;whiteSpace=wrap;rounded=0;" parent="1" vertex="1">
          <mxGeometry x="570" y="470" width="60" height="30" as="geometry" />
        </mxCell>
        <mxCell id="BYbjB0AaW16P3pTyjjmu-94" value="&lt;b&gt;N&lt;/b&gt;" style="text;html=1;strokeColor=none;fillColor=none;align=center;verticalAlign=middle;whiteSpace=wrap;rounded=0;" parent="1" vertex="1">
          <mxGeometry x="694" y="470" width="60" height="30" as="geometry" />
        </mxCell>
        <mxCell id="BYbjB0AaW16P3pTyjjmu-95" value="&lt;b&gt;1&lt;/b&gt;" style="text;html=1;strokeColor=none;fillColor=none;align=center;verticalAlign=middle;whiteSpace=wrap;rounded=0;" parent="1" vertex="1">
          <mxGeometry x="410" y="610" width="60" height="30" as="geometry" />
        </mxCell>
        <mxCell id="BYbjB0AaW16P3pTyjjmu-96" value="&lt;b&gt;N&lt;/b&gt;" style="text;html=1;strokeColor=none;fillColor=none;align=center;verticalAlign=middle;whiteSpace=wrap;rounded=0;" parent="1" vertex="1">
          <mxGeometry x="414" y="710" width="60" height="30" as="geometry" />
        </mxCell>
        <mxCell id="BYbjB0AaW16P3pTyjjmu-97" value="comment" style="shape=ext;margin=3;double=1;whiteSpace=wrap;html=1;align=center;" parent="1" vertex="1">
          <mxGeometry x="810" y="795" width="100" height="40" as="geometry" />
        </mxCell>
        <mxCell id="BYbjB0AaW16P3pTyjjmu-98" value="write" style="shape=rhombus;double=1;perimeter=rhombusPerimeter;whiteSpace=wrap;html=1;align=center;fillColor=#d5e8d4;strokeColor=#82b366;" parent="1" vertex="1">
          <mxGeometry x="800" y="415" width="120" height="60" as="geometry" />
        </mxCell>
        <mxCell id="BYbjB0AaW16P3pTyjjmu-99" value="" style="shape=link;html=1;rounded=0;" parent="1" source="BYbjB0AaW16P3pTyjjmu-98" target="BYbjB0AaW16P3pTyjjmu-97" edge="1">
          <mxGeometry width="100" relative="1" as="geometry">
            <mxPoint x="910" y="670" as="sourcePoint" />
            <mxPoint x="1010" y="670" as="targetPoint" />
          </mxGeometry>
        </mxCell>
        <mxCell id="BYbjB0AaW16P3pTyjjmu-100" value="&lt;b&gt;1&lt;/b&gt;" style="text;html=1;strokeColor=none;fillColor=none;align=center;verticalAlign=middle;whiteSpace=wrap;rounded=0;" parent="1" vertex="1">
          <mxGeometry x="860" y="390" width="60" height="30" as="geometry" />
        </mxCell>
        <mxCell id="BYbjB0AaW16P3pTyjjmu-101" value="&lt;b&gt;N&lt;/b&gt;" style="text;html=1;strokeColor=none;fillColor=none;align=center;verticalAlign=middle;whiteSpace=wrap;rounded=0;" parent="1" vertex="1">
          <mxGeometry x="867" y="475" width="60" height="30" as="geometry" />
        </mxCell>
        <mxCell id="BYbjB0AaW16P3pTyjjmu-102" value="" style="shape=link;html=1;rounded=0;" parent="1" source="BYbjB0AaW16P3pTyjjmu-15" target="BYbjB0AaW16P3pTyjjmu-2" edge="1">
          <mxGeometry width="100" relative="1" as="geometry">
            <mxPoint x="384" y="429.13" as="sourcePoint" />
            <mxPoint x="484" y="429.13" as="targetPoint" />
          </mxGeometry>
        </mxCell>
        <mxCell id="BYbjB0AaW16P3pTyjjmu-103" value="has" style="shape=rhombus;double=1;perimeter=rhombusPerimeter;whiteSpace=wrap;html=1;align=center;fillColor=#d5e8d4;strokeColor=#82b366;" parent="1" vertex="1">
          <mxGeometry x="580" y="785" width="120" height="60" as="geometry" />
        </mxCell>
        <mxCell id="BYbjB0AaW16P3pTyjjmu-104" value="" style="endArrow=none;html=1;rounded=0;" parent="1" source="BYbjB0AaW16P3pTyjjmu-103" target="BYbjB0AaW16P3pTyjjmu-3" edge="1">
          <mxGeometry width="50" height="50" relative="1" as="geometry">
            <mxPoint x="760" y="700" as="sourcePoint" />
            <mxPoint x="810" y="650" as="targetPoint" />
          </mxGeometry>
        </mxCell>
        <mxCell id="BYbjB0AaW16P3pTyjjmu-105" value="" style="shape=link;html=1;rounded=0;" parent="1" source="BYbjB0AaW16P3pTyjjmu-103" target="BYbjB0AaW16P3pTyjjmu-97" edge="1">
          <mxGeometry width="100" relative="1" as="geometry">
            <mxPoint x="830" y="750" as="sourcePoint" />
            <mxPoint x="930" y="750" as="targetPoint" />
          </mxGeometry>
        </mxCell>
        <mxCell id="BYbjB0AaW16P3pTyjjmu-106" value="&lt;b&gt;1&lt;/b&gt;" style="text;html=1;strokeColor=none;fillColor=none;align=center;verticalAlign=middle;whiteSpace=wrap;rounded=0;" parent="1" vertex="1">
          <mxGeometry x="534" y="815" width="60" height="30" as="geometry" />
        </mxCell>
        <mxCell id="BYbjB0AaW16P3pTyjjmu-107" value="&lt;b&gt;N&lt;/b&gt;" style="text;html=1;strokeColor=none;fillColor=none;align=center;verticalAlign=middle;whiteSpace=wrap;rounded=0;" parent="1" vertex="1">
          <mxGeometry x="680" y="820" width="60" height="30" as="geometry" />
        </mxCell>
        <mxCell id="BYbjB0AaW16P3pTyjjmu-108" value="city" style="ellipse;whiteSpace=wrap;html=1;align=center;" parent="1" vertex="1">
          <mxGeometry x="1220" y="60" width="100" height="40" as="geometry" />
        </mxCell>
        <mxCell id="BYbjB0AaW16P3pTyjjmu-109" value="district" style="ellipse;whiteSpace=wrap;html=1;align=center;" parent="1" vertex="1">
          <mxGeometry x="1220" y="118" width="100" height="40" as="geometry" />
        </mxCell>
        <mxCell id="BYbjB0AaW16P3pTyjjmu-110" value="street" style="ellipse;whiteSpace=wrap;html=1;align=center;" parent="1" vertex="1">
          <mxGeometry x="1220" y="175" width="100" height="40" as="geometry" />
        </mxCell>
        <mxCell id="BYbjB0AaW16P3pTyjjmu-111" value="" style="endArrow=none;html=1;rounded=0;" parent="1" source="BYbjB0AaW16P3pTyjjmu-11" target="BYbjB0AaW16P3pTyjjmu-108" edge="1">
          <mxGeometry relative="1" as="geometry">
            <mxPoint x="850" y="280" as="sourcePoint" />
            <mxPoint x="1010" y="280" as="targetPoint" />
          </mxGeometry>
        </mxCell>
        <mxCell id="BYbjB0AaW16P3pTyjjmu-112" value="" style="endArrow=none;html=1;rounded=0;" parent="1" source="BYbjB0AaW16P3pTyjjmu-11" target="BYbjB0AaW16P3pTyjjmu-109" edge="1">
          <mxGeometry relative="1" as="geometry">
            <mxPoint x="1068" y="103" as="sourcePoint" />
            <mxPoint x="1112" y="77" as="targetPoint" />
          </mxGeometry>
        </mxCell>
        <mxCell id="BYbjB0AaW16P3pTyjjmu-113" value="" style="endArrow=none;html=1;rounded=0;" parent="1" source="BYbjB0AaW16P3pTyjjmu-11" target="BYbjB0AaW16P3pTyjjmu-110" edge="1">
          <mxGeometry relative="1" as="geometry">
            <mxPoint x="1078" y="113" as="sourcePoint" />
            <mxPoint x="1122" y="87" as="targetPoint" />
          </mxGeometry>
        </mxCell>
        <mxCell id="BYbjB0AaW16P3pTyjjmu-114" value="alley" style="ellipse;whiteSpace=wrap;html=1;align=center;" parent="1" vertex="1">
          <mxGeometry x="1220" y="233" width="100" height="40" as="geometry" />
        </mxCell>
        <mxCell id="BYbjB0AaW16P3pTyjjmu-115" value="floor" style="ellipse;whiteSpace=wrap;html=1;align=center;" parent="1" vertex="1">
          <mxGeometry x="1220" y="290" width="100" height="40" as="geometry" />
        </mxCell>
        <mxCell id="BYbjB0AaW16P3pTyjjmu-116" value="" style="endArrow=none;html=1;rounded=0;" parent="1" source="BYbjB0AaW16P3pTyjjmu-11" target="BYbjB0AaW16P3pTyjjmu-115" edge="1">
          <mxGeometry relative="1" as="geometry">
            <mxPoint x="1099" y="134" as="sourcePoint" />
            <mxPoint x="1241" y="146" as="targetPoint" />
          </mxGeometry>
        </mxCell>
        <mxCell id="BYbjB0AaW16P3pTyjjmu-117" value="" style="endArrow=none;html=1;rounded=0;" parent="1" source="BYbjB0AaW16P3pTyjjmu-1" target="BYbjB0AaW16P3pTyjjmu-119" edge="1">
          <mxGeometry relative="1" as="geometry">
            <mxPoint x="960" y="280" as="sourcePoint" />
            <mxPoint x="1102" y="292" as="targetPoint" />
          </mxGeometry>
        </mxCell>
        <mxCell id="BYbjB0AaW16P3pTyjjmu-118" value="" style="endArrow=none;html=1;rounded=0;" parent="1" source="BYbjB0AaW16P3pTyjjmu-11" target="BYbjB0AaW16P3pTyjjmu-114" edge="1">
          <mxGeometry relative="1" as="geometry">
            <mxPoint x="1119" y="154" as="sourcePoint" />
            <mxPoint x="1261" y="166" as="targetPoint" />
          </mxGeometry>
        </mxCell>
        <mxCell id="BYbjB0AaW16P3pTyjjmu-119" value="is_active" style="ellipse;whiteSpace=wrap;html=1;align=center;" parent="1" vertex="1">
          <mxGeometry x="1060" y="250" width="100" height="40" as="geometry" />
        </mxCell>
        <mxCell id="BYbjB0AaW16P3pTyjjmu-120" value="quantity" style="ellipse;whiteSpace=wrap;html=1;align=center;" parent="1" vertex="1">
          <mxGeometry x="920" y="730" width="100" height="40" as="geometry" />
        </mxCell>
        <mxCell id="BYbjB0AaW16P3pTyjjmu-121" value="" style="endArrow=none;html=1;rounded=0;" parent="1" source="BYbjB0AaW16P3pTyjjmu-41" target="BYbjB0AaW16P3pTyjjmu-120" edge="1">
          <mxGeometry relative="1" as="geometry">
            <mxPoint x="1110" y="720" as="sourcePoint" />
            <mxPoint x="1270" y="720" as="targetPoint" />
          </mxGeometry>
        </mxCell>
        <mxCell id="BYbjB0AaW16P3pTyjjmu-127" style="edgeStyle=none;shape=connector;rounded=0;orthogonalLoop=1;jettySize=auto;html=1;entryX=0;entryY=0.5;entryDx=0;entryDy=0;labelBackgroundColor=default;strokeColor=default;align=center;verticalAlign=middle;fontFamily=Helvetica;fontSize=11;fontColor=default;endArrow=none;" parent="1" source="BYbjB0AaW16P3pTyjjmu-123" target="BYbjB0AaW16P3pTyjjmu-130" edge="1">
          <mxGeometry relative="1" as="geometry">
            <mxPoint x="747" y="590" as="targetPoint" />
          </mxGeometry>
        </mxCell>
        <mxCell id="BYbjB0AaW16P3pTyjjmu-123" value="release" style="shape=rhombus;perimeter=rhombusPerimeter;whiteSpace=wrap;html=1;align=center;fillColor=#dae8fc;strokeColor=#6c8ebf;" parent="1" vertex="1">
          <mxGeometry x="524" y="560" width="120" height="60" as="geometry" />
        </mxCell>
        <mxCell id="BYbjB0AaW16P3pTyjjmu-131" style="edgeStyle=none;shape=connector;rounded=0;orthogonalLoop=1;jettySize=auto;html=1;labelBackgroundColor=default;strokeColor=default;align=center;verticalAlign=middle;fontFamily=Helvetica;fontSize=11;fontColor=default;endArrow=none;" parent="1" source="BYbjB0AaW16P3pTyjjmu-128" target="BYbjB0AaW16P3pTyjjmu-130" edge="1">
          <mxGeometry relative="1" as="geometry" />
        </mxCell>
        <mxCell id="BYbjB0AaW16P3pTyjjmu-128" value="coupon_code" style="ellipse;whiteSpace=wrap;html=1;align=center;" parent="1" vertex="1">
          <mxGeometry x="594" y="640" width="100" height="40" as="geometry" />
        </mxCell>
        <mxCell id="BYbjB0AaW16P3pTyjjmu-141" style="edgeStyle=none;shape=connector;rounded=0;orthogonalLoop=1;jettySize=auto;html=1;labelBackgroundColor=default;strokeColor=default;align=center;verticalAlign=middle;fontFamily=Helvetica;fontSize=11;fontColor=default;endArrow=none;" parent="1" source="BYbjB0AaW16P3pTyjjmu-130" target="BYbjB0AaW16P3pTyjjmu-140" edge="1">
          <mxGeometry relative="1" as="geometry" />
        </mxCell>
        <mxCell id="BYbjB0AaW16P3pTyjjmu-130" value="coupon" style="shape=ext;double=1;rounded=0;whiteSpace=wrap;html=1;fontFamily=Helvetica;fontSize=11;fontColor=default;" parent="1" vertex="1">
          <mxGeometry x="710" y="560" width="100" height="60" as="geometry" />
        </mxCell>
        <mxCell id="BYbjB0AaW16P3pTyjjmu-135" value="&lt;b&gt;1&lt;/b&gt;" style="text;html=1;strokeColor=none;fillColor=none;align=center;verticalAlign=middle;whiteSpace=wrap;rounded=0;" parent="1" vertex="1">
          <mxGeometry x="500" y="550" width="60" height="30" as="geometry" />
        </mxCell>
        <mxCell id="BYbjB0AaW16P3pTyjjmu-136" value="&lt;b&gt;N&lt;/b&gt;" style="text;html=1;strokeColor=none;fillColor=none;align=center;verticalAlign=middle;whiteSpace=wrap;rounded=0;" parent="1" vertex="1">
          <mxGeometry x="634" y="560" width="60" height="30" as="geometry" />
        </mxCell>
        <mxCell id="BYbjB0AaW16P3pTyjjmu-142" style="edgeStyle=none;shape=connector;rounded=0;orthogonalLoop=1;jettySize=auto;html=1;labelBackgroundColor=default;strokeColor=default;align=center;verticalAlign=middle;fontFamily=Helvetica;fontSize=11;fontColor=default;endArrow=none;exitX=1;exitY=0.5;exitDx=0;exitDy=0;" parent="1" source="BYbjB0AaW16P3pTyjjmu-140" target="BYbjB0AaW16P3pTyjjmu-4" edge="1">
          <mxGeometry relative="1" as="geometry" />
        </mxCell>
        <mxCell id="BYbjB0AaW16P3pTyjjmu-140" value="include" style="shape=rhombus;perimeter=rhombusPerimeter;whiteSpace=wrap;html=1;align=center;fillColor=#dae8fc;strokeColor=#6c8ebf;" parent="1" vertex="1">
          <mxGeometry x="910" y="555" width="120" height="60" as="geometry" />
        </mxCell>
        <mxCell id="BYbjB0AaW16P3pTyjjmu-146" value="&lt;b&gt;1&lt;/b&gt;" style="text;html=1;strokeColor=none;fillColor=none;align=center;verticalAlign=middle;whiteSpace=wrap;rounded=0;" parent="1" vertex="1">
          <mxGeometry x="870" y="550" width="60" height="30" as="geometry" />
        </mxCell>
        <mxCell id="BYbjB0AaW16P3pTyjjmu-147" value="&lt;b&gt;N&lt;/b&gt;" style="text;html=1;strokeColor=none;fillColor=none;align=center;verticalAlign=middle;whiteSpace=wrap;rounded=0;" parent="1" vertex="1">
          <mxGeometry x="1010" y="544" width="60" height="30" as="geometry" />
        </mxCell>
        <mxCell id="l9RWxwX0V76ByVYaG6gp-4" style="edgeStyle=none;shape=connector;rounded=0;orthogonalLoop=1;jettySize=auto;html=1;entryX=0.25;entryY=1;entryDx=0;entryDy=0;labelBackgroundColor=default;strokeColor=default;align=center;verticalAlign=middle;fontFamily=Helvetica;fontSize=11;fontColor=default;endArrow=none;" edge="1" parent="1" source="l9RWxwX0V76ByVYaG6gp-2" target="BYbjB0AaW16P3pTyjjmu-3">
          <mxGeometry relative="1" as="geometry" />
        </mxCell>
        <mxCell id="l9RWxwX0V76ByVYaG6gp-2" value="imageurl" style="ellipse;whiteSpace=wrap;html=1;align=center;" vertex="1" parent="1">
          <mxGeometry x="210" y="905" width="100" height="40" as="geometry" />
        </mxCell>
      </root>
    </mxGraphModel>
  </diagram>
</mxfile>
